<svg width="589" height="670" viewBox="0 0 589 670" fill="none" xmlns="http://www.w3.org/2000/svg">
<g clip-path="url(#clip0_2_102)">
<path d="M415.425 54.1846L147.888 244.184L149.046 245.815L416.584 55.8155L415.425 54.1846Z" fill="#E6E6E6"/>
<path d="M421.475 54.7432H136.576V56.7432H421.475V54.7432Z" fill="#F2F2F2"/>
<path d="M421.475 100.743H136.576V102.743H421.475V100.743Z" fill="#F2F2F2"/>
<path d="M421.475 146.743H136.576V148.743H421.475V146.743Z" fill="#F2F2F2"/>
<path d="M421.475 192.743H136.576V194.743H421.475V192.743Z" fill="#F2F2F2"/>
<path d="M421.475 238.743H136.576V240.743H421.475V238.743Z" fill="#F2F2F2"/>
<path d="M447.233 287.655H135.176V0H137.176V203.383C137.176 225.203 145.844 246.129 161.273 261.558C176.702 276.987 197.628 285.655 219.448 285.655H447.233V287.655Z" fill="#E6E6E6"/>
<path d="M284.176 245C331.12 245 369.176 206.944 369.176 160C369.176 113.056 331.12 75 284.176 75C237.232 75 199.176 113.056 199.176 160C199.176 206.944 237.232 245 284.176 245Z" fill="#00D1B2"/>
<path d="M407.338 154.959L472.276 205.212C475.034 207.332 478.514 208.284 481.967 207.861C485.42 207.438 488.569 205.675 490.733 202.951C491.853 201.542 492.673 199.92 493.146 198.183C493.618 196.447 493.731 194.632 493.479 192.85C493.227 191.068 492.615 189.356 491.68 187.819C490.745 186.281 489.506 184.95 488.04 183.907L418.985 133.774L378.309 101.543C378.943 99.2542 378.858 96.8258 378.064 94.5876C377.27 92.3493 375.806 90.4097 373.871 89.0323C371.937 87.6549 369.625 86.9065 367.25 86.8887C364.875 86.8709 362.553 87.5846 360.598 88.9329C358.643 90.2811 357.15 92.1986 356.323 94.4247C355.495 96.6508 355.373 99.0776 355.973 101.375C356.573 103.673 357.866 105.731 359.676 107.268C361.486 108.806 363.725 109.749 366.09 109.97L407.338 154.959Z" fill="#FFB6B6"/>
<path d="M305.176 227C288.167 227 271.539 221.956 257.397 212.506C243.254 203.057 232.231 189.625 225.722 173.911C219.213 158.196 217.51 140.905 220.828 124.222C224.147 107.54 232.337 92.2161 244.365 80.1888C256.392 68.1615 271.716 59.9708 288.398 56.6524C305.08 53.3341 322.372 55.0372 338.087 61.5463C353.801 68.0555 367.232 79.0783 376.682 93.2209C386.132 107.364 391.176 123.991 391.176 141C391.15 163.801 382.081 185.66 365.958 201.783C349.836 217.905 327.976 226.974 305.176 227ZM305.176 57C311.689 89.2299 221.176 94.6821 221.176 141C221.201 163.27 230.059 184.622 245.807 200.369C261.554 216.117 282.905 224.975 305.176 225C351.494 225 390.137 187.308 389.176 141C388.213 94.6109 298.662 24.7701 305.176 57Z" fill="#3F3D56"/>
<path d="M461.152 151.856C479.05 151.856 493.56 137.347 493.56 119.449C493.56 101.551 479.05 87.0412 461.152 87.0412C443.254 87.0412 428.745 101.551 428.745 119.449C428.745 137.347 443.254 151.856 461.152 151.856Z" fill="#FFB6B6"/>
<path d="M365.677 646.876L354.199 646.875L348.739 602.605H365.679L365.677 646.876Z" fill="#FFB6B6"/>
<path d="M331.034 663.81C331.04 665.096 331.552 666.328 332.461 667.238C333.369 668.148 334.599 668.663 335.885 668.671H357.491L358.161 667.284L361.217 660.977L362.401 667.284L362.663 668.671H370.812L370.696 667.274L368.522 641.214L365.68 641.04L353.397 640.312L350.38 640.128V647.909C348.09 650.344 330.122 659.551 331.034 663.81Z" fill="#2F2E41"/>
<path d="M570.695 596.294L561.935 603.71L529.163 573.45L542.092 562.505L570.695 596.294Z" fill="#FFB6B6"/>
<path d="M555.198 631.603C556.033 632.581 557.22 633.19 558.501 633.297C559.782 633.405 561.054 633.003 562.041 632.179L578.531 618.218L578.146 616.726L576.403 609.939L581.381 613.987L582.478 614.877L588.698 609.611L587.706 608.62L569.209 590.135L566.927 591.838L557.083 599.219L554.661 601.028L559.688 606.967C559.514 610.305 551.75 628.942 555.198 631.603Z" fill="#2F2E41"/>
<path d="M305.879 116.644C305.822 116.503 305.725 116.382 305.6 116.297C305.475 116.212 305.326 116.167 305.175 116.167C305.023 116.167 304.875 116.212 304.75 116.297C304.625 116.382 304.528 116.503 304.471 116.644C302.612 121.309 300.213 125.74 297.322 129.847C297.226 129.979 297.174 130.139 297.176 130.302C297.177 130.465 297.231 130.624 297.329 130.755C297.428 130.885 297.566 130.981 297.722 131.027C297.879 131.073 298.047 131.067 298.2 131.011L304.175 128.849V165.833H306.175V128.849L312.151 131.011C312.305 131.067 312.472 131.073 312.629 131.027C312.786 130.981 312.924 130.886 313.022 130.755C313.121 130.624 313.175 130.466 313.176 130.302C313.177 130.139 313.126 129.979 313.029 129.847C310.139 125.74 307.739 121.309 305.879 116.644Z" fill="#3F3D56"/>
<path d="M473.922 306.697L395.608 286.433C395.608 286.433 357.176 335 355.176 393C355.073 395.97 356.64 399.691 354.908 403.345C353.176 407 357.222 413.906 354.699 416.953C352.176 420 351.024 422.613 354.6 426.306C358.176 430 348.365 588.715 344.686 594.685C340.176 602 348.608 607.693 344.392 610.846C340.176 614 344.176 623 344.176 623H366.176L397.622 506.808C397.622 506.808 417.442 452.873 414.066 446.051C410.689 439.23 416.642 436.532 416.642 436.532C416.642 436.532 421.786 434.348 418.737 428.789C415.689 423.23 425.176 405 425.176 405C420.903 404.445 427.225 461.024 452.714 511.982C471.361 549.259 503.429 559.306 505.176 566C509.045 580.83 527.873 564.591 522.176 576C516.479 587.409 534.176 586 534.176 586L554.176 570L493.176 495L486.606 415.246C486.606 415.246 483.111 414.153 485.143 410.076C487.176 406 480.389 406.468 482.782 401.734C485.176 397 478.795 397.233 480.485 393.617C482.176 390 478.495 386.584 478.495 386.584C478.495 386.584 488.119 353.886 470.397 330.193L473.922 306.697Z" fill="#FF6584"/>
<path d="M374.689 322.23C374.689 322.23 388.689 290.23 392.689 286.23C396.689 282.23 410.176 275 407.176 272C404.176 269 398.215 270.787 403.195 265.394C408.176 260 412.006 249.52 412.006 249.52L407.689 199.23L430.689 170.23L445.176 156L480.517 153.709L482.495 174.005C482.495 174.005 515.141 190.882 507.658 223.441C500.176 256 486.689 260.23 490.689 300.23C491.135 304.685 473.381 299.103 477.176 301C479.176 302 488.349 319.972 482.349 323.972C478.601 326.441 474.573 328.455 470.349 329.972C439.63 305.709 408.201 294.618 374.689 322.23Z" fill="#E6E6E6"/>
<path d="M358.525 222.308L437.32 199.207C440.656 198.219 443.469 195.958 445.152 192.914C446.836 189.87 447.255 186.286 446.319 182.935C445.835 181.202 445.003 179.585 443.874 178.184C442.745 176.783 441.342 175.626 439.751 174.785C438.16 173.943 436.414 173.434 434.621 173.29C432.827 173.145 431.022 173.367 429.317 173.942L348.204 200.447L298.238 214.475C296.757 212.618 294.74 211.263 292.462 210.592C290.183 209.922 287.754 209.969 285.503 210.728C283.253 211.486 281.29 212.919 279.883 214.832C278.475 216.745 277.69 219.044 277.635 221.418C277.579 223.793 278.256 226.126 279.574 228.103C280.891 230.079 282.784 231.601 284.997 232.464C287.21 233.326 289.634 233.487 291.942 232.923C294.249 232.36 296.326 231.099 297.892 229.314L358.525 222.308Z" fill="#FFB6B6"/>
<path d="M497.824 98.7047C502.333 82.2657 453.191 68.169 443.641 81.4073C442.313 79.5252 437.406 78.382 435.154 78.9594C432.95 79.6912 430.913 80.8529 429.161 82.3773C426.621 84.3287 423.988 86.3495 422.429 89.1553C420.859 91.9496 420.616 95.7602 422.729 98.185C424.404 100.113 427.346 110.36 429.863 110.868C431.618 111.226 433.096 111.515 434.366 111.723C435.498 110.072 438.384 107.998 438.176 106C439.885 107.132 439.26 109.122 438.916 111.157C437.769 117.933 411.92 170.382 426.725 154.927C428.434 155.899 430.232 156.707 432.094 157.34C435.778 151.71 438.6 145.56 440.465 139.096L440.479 139.218C440.836 142.023 442.011 144.66 443.859 146.801C445.706 148.942 448.143 150.491 450.866 151.254C473.089 157.692 491.065 148.245 497.249 131.209C494.985 126.613 493.999 127.112 494.202 126.976C494.866 126.532 495.622 126.244 496.413 126.132C497.204 126.02 498.01 126.088 498.771 126.331C499.533 126.573 500.23 126.984 500.81 127.533C501.391 128.082 501.841 128.754 502.126 129.501C502.484 130.439 502.81 131.241 503.092 131.844C506.313 120.32 510.145 121.983 497.824 98.7047Z" fill="#2F2E41"/>
<path d="M482.493 86.7777L480.223 75.1725C479.929 74.2156 479.953 73.1892 480.291 72.2471C480.626 71.7012 481.12 71.2709 481.707 71.014C482.294 70.757 482.945 70.6857 483.573 70.8096C484.837 70.9921 485.783 72.1468 487.041 72.3691C491.413 73.1422 497.194 68.823 498.76 79.7497C499.414 84.3055 506.683 84.7867 509.111 88.6966C511.539 92.6065 511.837 98.2501 508.523 101.444C505.877 103.996 501.628 104.29 498.191 102.987C494.754 101.684 491.995 99.0513 489.586 96.2755C487.177 93.4996 484.995 90.4958 482.216 88.0902" fill="#2F2E41"/>
<path d="M499.555 104.429C490.687 103.19 484.643 99.9653 481.59 94.8442C477.594 88.1406 480.27 80.7592 480.386 80.4482L482.261 81.145C482.236 81.2128 479.808 87.9697 483.318 93.8373C486.049 98.4018 491.605 101.299 499.832 102.449L499.555 104.429Z" fill="#6C63FF"/>
</g>
<defs>
<clipPath id="clip0_2_102">
<rect width="588.698" height="669.944" fill="white"/>
</clipPath>
</defs>
</svg>
