<svg width="196" height="449" viewBox="0 0 196 449" fill="none" xmlns="http://www.w3.org/2000/svg">
<path d="M3.37702 399.226C7.30018 400.606 11.5124 400.951 15.6078 400.23C19.7033 399.508 23.5439 397.744 26.7597 395.108C34.9495 388.233 37.5177 376.912 39.6064 366.426L45.7861 335.409L32.8484 344.318C23.5438 350.724 14.0302 357.336 7.58832 366.615C1.14647 375.895 -1.6639 388.563 3.51041 398.603" fill="#00D1B2"/>
<path d="M5.37467 438.937C3.74628 427.073 2.07085 415.056 3.21583 403.065C4.2305 392.416 7.47956 382.017 14.0941 373.486C17.6051 368.967 21.8774 365.096 26.7188 362.046C27.981 361.249 29.1429 363.249 27.8861 364.043C19.5089 369.337 13.0294 377.154 9.38166 386.368C5.35309 396.614 4.70621 407.784 5.40012 418.669C5.81956 425.251 6.71087 431.79 7.60601 438.321C7.67669 438.616 7.63256 438.928 7.48256 439.192C7.33257 439.456 7.0879 439.653 6.79801 439.744C6.50228 439.823 6.18706 439.783 5.92075 439.632C5.65444 439.481 5.45851 439.23 5.37548 438.936L5.37467 438.937Z" fill="#F2F2F2"/>
<path d="M17.0957 419.901C18.778 422.458 21.0908 424.54 23.8111 425.944C26.5314 427.349 29.5676 428.029 32.6271 427.919C40.4915 427.546 47.0452 422.059 52.9442 416.849L70.3962 401.44L58.8464 400.887C50.5402 400.489 42.0197 400.116 34.1082 402.681C26.1968 405.245 18.9007 411.407 17.4542 419.596" fill="#00D1B2"/>
<path d="M0.771701 445.757C8.61142 431.885 17.704 416.469 33.9525 411.541C38.47 410.176 43.2068 409.687 47.9079 410.1C49.3898 410.228 49.0197 412.512 47.5409 412.385C39.6605 411.731 31.7953 413.811 25.2693 418.277C18.9894 422.551 14.0996 428.494 9.9615 434.796C7.42639 438.656 5.15573 442.68 2.88507 446.699C2.15951 447.983 0.0376913 447.056 0.771701 445.757Z" fill="#F2F2F2"/>
<path d="M100.913 436.469H113.173L119.005 389.181L100.911 389.182L100.913 436.469Z" fill="#FFB6B6"/>
<path d="M97.7854 432.467L121.929 432.466C126.01 432.466 129.925 434.087 132.81 436.972C135.696 439.858 137.317 443.771 137.317 447.852V448.352L97.7862 448.354L97.7854 432.467Z" fill="#2F2E41"/>
<path d="M158.913 436.469H171.173L177.005 389.181L158.911 389.182L158.913 436.469Z" fill="#FFB6B6"/>
<path d="M155.785 432.467L179.929 432.466C184.01 432.466 187.925 434.087 190.81 436.972C193.696 439.858 195.317 443.771 195.317 447.852V448.352L155.786 448.354L155.785 432.467Z" fill="#2F2E41"/>
<path d="M181.793 220.284C182.829 219.104 183.594 217.711 184.034 216.204C184.473 214.696 184.577 213.11 184.337 211.558C184.098 210.006 183.521 208.525 182.647 207.22C181.773 205.915 180.624 204.817 179.28 204.004L159.329 108.216L137.593 116.779L164.039 208.244C162.824 210.592 162.511 213.304 163.162 215.867C163.812 218.43 165.38 220.666 167.568 222.15C169.756 223.634 172.413 224.264 175.035 223.92C177.657 223.576 180.061 222.283 181.793 220.284Z" fill="#FFB6B6"/>
<path d="M87.7644 201.838L78.7279 211.011C78.7279 211.011 69.0396 246.514 87.5788 290.3L99.9788 417.25L122.289 418.93L128.949 271.234L159.679 320.26L154.311 418.405L178.972 417.838L190.118 309.086L159.679 195.602L87.7644 201.838Z" fill="#2F2E41"/>
<path d="M119.361 214.195C105.754 214.101 92.1638 213.203 78.6623 211.507L78.1188 211.435L91.5854 152.249L86.9484 76.0983L130.736 74.5983C134.7 74.4546 138.577 75.7801 141.623 78.3205C144.67 80.8608 146.67 84.4368 147.241 88.362L156.203 149.117L164.493 203.02L164.382 203.182C158.425 211.917 138.506 214.195 119.361 214.195Z" fill="#6C63FF"/>
<path d="M126.752 87.1933L135.649 76.0401C135.649 76.0401 151.246 65.3741 156.182 88.2301C161.118 111.086 170.289 148.19 170.289 148.19L139.791 150.66L126.752 87.1933Z" fill="#6C63FF"/>
<path d="M42.4434 221.284C41.4071 220.104 40.6423 218.711 40.2026 217.204C39.763 215.696 39.6593 214.11 39.8988 212.558C40.1384 211.006 40.7153 209.525 41.589 208.22C42.4627 206.915 43.612 205.817 44.9557 205.004L64.9071 109.216L86.643 117.779L60.1967 209.244C61.4127 211.592 61.725 214.304 61.0747 216.867C60.4243 219.43 58.8564 221.666 56.6681 223.15C54.4798 224.634 51.823 225.264 49.2013 224.92C46.5796 224.576 44.1751 223.283 42.4434 221.284Z" fill="#FFB6B6"/>
<path d="M97.4843 88.1933L88.5874 77.0401C88.5874 77.0401 72.9905 66.3741 68.0543 89.2301C63.1181 112.086 53.9469 149.19 53.9469 149.19L84.4449 151.66L97.4843 88.1933Z" fill="#6C63FF"/>
<path d="M134.978 63.4614H76.9783C75.7852 63.4601 74.6414 62.9855 73.7978 62.1419C72.9542 61.2983 72.4796 60.1545 72.4783 58.9614V33.9614C72.4783 25.0766 76.0078 16.5558 82.2902 10.2733C88.5727 3.99085 97.0935 0.461395 105.978 0.461395C114.863 0.461395 123.384 3.99085 129.666 10.2733C135.949 16.5558 139.478 25.0766 139.478 33.9614V58.9614C139.477 60.1545 139.002 61.2983 138.159 62.1419C137.315 62.9855 136.171 63.4601 134.978 63.4614Z" fill="#2F2E41"/>
<path d="M112.382 61.9555C125.947 61.9555 136.943 50.9592 136.943 37.3945C136.943 23.8298 125.947 12.8334 112.382 12.8334C98.8172 12.8334 87.8209 23.8298 87.8209 37.3945C87.8209 50.9592 98.8172 61.9555 112.382 61.9555Z" fill="#FFB6B6"/>
<path d="M147.404 36.4614H111.938L111.574 31.3696L109.756 36.4614H104.295L103.574 26.3696L99.9702 36.4614H89.4036V35.9614C89.4115 28.9356 92.2059 22.1999 97.1739 17.2319C102.142 12.2639 108.878 9.46934 115.903 9.4614H120.904C127.929 9.46934 134.665 12.2638 139.633 17.2318C144.601 22.1998 147.396 28.9356 147.404 35.9614V36.4614Z" fill="#2F2E41"/>
<path d="M111.648 68.1281C111.381 68.1279 111.114 68.1044 110.851 68.0578L84.8819 63.4758V20.5559H113.469L112.762 21.3811C102.914 32.8655 110.333 51.4875 115.632 61.5656C116.022 62.3038 116.196 63.1372 116.134 63.9699C116.072 64.8027 115.775 65.6009 115.279 66.2726C114.864 66.8471 114.318 67.3148 113.687 67.6374C113.056 67.9599 112.357 68.1281 111.648 68.1281Z" fill="#2F2E41"/>
</svg>
