<svg width="257" height="480" viewBox="0 0 257 480" fill="none" xmlns="http://www.w3.org/2000/svg">
<path d="M189.323 467.469H177.064L171.231 420.181L189.326 420.182L189.323 467.469Z" fill="#9E616A"/>
<path d="M192.45 479.353L152.919 479.352V478.852C152.92 474.771 154.541 470.858 157.426 467.972C160.312 465.087 164.225 463.466 168.306 463.466L192.451 463.467L192.45 479.353Z" fill="#2F2E41"/>
<path d="M145.323 467.469H133.064L127.231 420.181L145.326 420.182L145.323 467.469Z" fill="#9E616A"/>
<path d="M148.45 479.353L108.919 479.352V478.852C108.92 474.771 110.541 470.858 113.426 467.972C116.312 465.087 120.225 463.466 124.306 463.466L148.451 463.467L148.45 479.353Z" fill="#2F2E41"/>
<path d="M2.53788 136.113C3.5177 137.461 4.78104 138.577 6.23893 139.384C7.69683 140.19 9.31383 140.667 10.976 140.781C12.6382 140.895 14.3051 140.643 15.8594 140.043C17.4136 139.443 18.8174 138.509 19.9719 137.308L44.2304 146.781L53.5827 133.443L19.1371 120.547C16.9905 118.741 14.2561 117.785 11.4521 117.861C8.64812 117.937 5.96926 119.038 3.9232 120.957C1.87713 122.876 0.606016 125.479 0.350689 128.272C0.0953615 131.065 0.87359 133.855 2.53788 136.113Z" fill="#9E616A"/>
<path d="M145.169 216.925L113.229 227.344L123.899 453.54L148.549 454.15L161.164 294.633L164.029 453.52L194.508 455.2L205.744 216.925H145.169Z" fill="#2F2E41"/>
<path d="M123.618 83.5861L205.593 65.7751L214.709 136.36L207.118 170.086L210.159 221.34C210.159 221.34 145.34 253.601 113.229 227.344C113.229 227.344 139.038 159.554 124.078 127.82L123.618 83.5861Z" fill="#FF6584"/>
<path d="M137.815 93.5701L123.618 83.5861C123.618 83.5861 122.78 82.4247 110.949 96.2554C99.1181 110.086 75.1182 132.086 75.1182 132.086L35.1182 117.086L27.8307 144.011L74.319 165.675L140.135 121.72L137.815 93.5701Z" fill="#FF6584"/>
<path d="M210.173 247.799C211.68 247.087 213.012 246.054 214.076 244.772C215.14 243.49 215.91 241.99 216.331 240.378C216.753 238.766 216.816 237.081 216.516 235.443C216.216 233.804 215.56 232.251 214.595 230.893L228.421 208.824L217.06 197.15L197.972 228.59C195.798 230.363 194.349 232.871 193.901 235.64C193.453 238.409 194.037 241.246 195.541 243.614C197.045 245.982 199.365 247.716 202.062 248.487C204.759 249.258 207.645 249.013 210.173 247.799Z" fill="#9E616A"/>
<path d="M192.807 79.6801L205.593 65.7751C205.593 65.7751 219.839 60.8139 231.479 86.4501C243.118 112.086 256.118 164.086 256.118 164.086L225.723 222.633L202.118 212.086L225.723 163.673L200.744 127.82L192.807 79.6801Z" fill="#FF6584"/>
<path d="M171.126 59.9856C184.021 52.9366 188.76 36.7688 181.711 23.8739C174.662 10.9789 158.495 6.2399 145.6 13.2889C132.705 20.3379 127.966 36.5056 135.015 49.4006C142.064 62.2955 158.232 67.0346 171.126 59.9856Z" fill="#9E616A"/>
<path d="M183.389 15.3645L184.679 12.7681L178.188 9.54316C178.188 9.54316 171.028 -2.10785 158.071 1.16635C145.113 4.44055 139.284 6.40006 139.284 6.40006L132.809 9.65782L136.059 12.891L130.229 14.8506L134.124 16.7856L129.592 19.3901L132.032 32.742C132.032 32.742 136.083 22.6151 143.872 26.4851C151.661 30.3551 165.909 24.4846 165.909 24.4846L178.287 48.4397C178.287 48.4397 180.84 40.0422 185.393 42.2814C185.393 42.2814 197.024 23.7577 183.389 15.3645Z" fill="#2F2E41"/>
</svg>
